<?xml version="1.0" standalone="no"?>
<!DOCTYPE svg PUBLIC "-//W3C//DTD SVG 20010904//EN"
 "http://www.w3.org/TR/2001/REC-SVG-20010904/DTD/svg10.dtd">
<svg version="1.0" xmlns="http://www.w3.org/2000/svg"
 width="1417.000000pt" height="1417.000000pt" viewBox="0 0 1417.000000 1417.000000"
 preserveAspectRatio="xMidYMid meet">
<metadata>
Created by potrace 1.11, written by Peter Selinger 2001-2013
</metadata>
<g transform="translate(0.000000,1417.000000) scale(0.100000,-0.100000)"
fill="#000000" stroke="none">
<path d="M450 7090 l0 -1710 213 0 212 0 0 783 0 782 998 3 997 2 0 -785 0
-785 213 0 212 0 0 1710 0 1710 -212 0 -213 0 0 -735 0 -735 -998 0 -997 0 0
735 0 735 -212 0 -213 0 0 -1710z"/>
<path d="M11270 7090 l0 -1710 213 0 212 0 0 676 c0 372 3 678 6 680 4 2 242
4 530 5 555 1 627 5 772 50 318 97 547 320 653 635 35 107 52 219 52 349 -2
339 -134 621 -381 812 -81 63 -241 142 -337 168 -153 41 -207 44 -977 45
l-743 0 0 -1710z m1481 1315 c93 -20 168 -50 235 -94 194 -126 288 -319 280
-571 -4 -107 -31 -217 -73 -293 -41 -74 -147 -189 -185 -202 -10 -4 -18 -10
-18 -14 0 -11 -124 -67 -195 -88 -53 -15 -122 -17 -577 -21 -285 -2 -519 0
-519 5 -1 4 -2 297 -3 651 l-1 642 495 0 c383 -1 510 -4 561 -15z"/>
<path d="M7021 8176 c8 -7 869 -445 1567 -797 73 -37 135 -69 137 -71 2 -2
-1016 -3 -2263 -3 -1247 1 -2273 -1 -2279 -3 -10 -3 -13 -56 -13 -217 0 -161
3 -214 13 -217 6 -2 1032 -4 2280 -3 1247 0 2267 0 2267 -2 0 -1 -132 -68
-292 -149 -161 -81 -360 -181 -443 -224 -82 -42 -336 -171 -564 -286 l-413
-209 607 -3 606 -2 427 216 c804 408 1726 876 1729 878 2 1 -582 298 -1739
885 l-417 211 -607 0 c-334 0 -605 -2 -603 -4z"/>
</g>
</svg>
